<svg xmlns="http://www.w3.org/2000/svg" viewBox="0 0 1762.82 1970"><defs><style>.cls-1{fill:#00395d;}.cls-2{fill:#fefefe;}.cls-3{fill:#fafbfb;}.cls-4{fill:#073b5d;}</style></defs><g id="Layer_2" data-name="Layer 2"><g id="Layer_1-2" data-name="Layer 1"><path class="cls-1" d="M878.05,0h7c4.71,1.82,9.74,3.07,14.06,5.56q122.25,70.35,244.34,141l289.22,167.06q144,83.15,288,166.22c12.09,7,17.92,17.17,17.92,31.11q0,474.48,0,948.94,0,20-17.27,30-101.16,58.43-202.34,116.82c-1.42.82-2.81,1.7-4.22,2.55.15.34.3.68.46,1h247.57l-101.92,106.36,102,105.43h-9.73q-301,0-602,.1a19.58,19.58,0,0,0-9.36,2.44c-64.34,37-128.47,74.39-193,111.14-20.95,11.94-40.59,26.43-63.75,34.31h-8c-4.36-1.83-9-3.21-13-5.55q-121.35-69.92-242.63-139.93a19.6,19.6,0,0,0-9.35-2.41q-302.23-.16-604.48-.09H.32l102-105.43L0,1609.79H249.6c-14-8.11-26.69-15.46-39.37-22.77q-83.89-48.45-167.8-96.85A35.51,35.51,0,0,1,28,1475.44c-3.66-7.14-3.44-14.79-3.44-22.45q0-468.73-.15-937.47c0-16.81,5.68-28.8,20.56-37.32q111.8-64,223.21-128.66,169.52-97.85,339-195.7c68.75-39.7,137.36-79.64,206.3-119C834.69,22.73,854.63,8.11,878.05,0Zm651.23,1357.15c-.13,0-.36.1-.37.16a4.13,4.13,0,0,0,.11.69c-2.51,2.68-4.58,6.13-7.62,7.92-33,19.35-66.19,38.45-99.34,57.58q-158.91,91.73-317.82,183.43c-1.28.73-2.47,1.62-4.39,2.89,1.59.08,2.09.13,2.58.13q137.74,0,275.49,0a12.72,12.72,0,0,0,6-1.72q142.3-82,284.57-164.14c3-1.7,4.1-3.49,4.1-7q-.15-452,0-903.95c0-3.7-1.25-5.5-4.36-7.3q-183.82-106-367.54-212.13L1002.38,141.4q-58.15-33.59-116.26-67.25c-3.26-1.9-5.67-2.12-9-.05C869.4,79,861.36,83.37,853.43,88q-156.51,90.37-313,180.76Q418.68,339,296.92,409.16c-65.15,37.61-130.17,75.45-195.53,112.68-8.31,4.73-11.09,9.55-11.08,19.14q.48,447.22.17,894.45c0,4.51,1.23,7,5.28,9.35q141.51,81.42,282.87,163.1a14.81,14.81,0,0,0,7,2q137,.13,274,0a31.47,31.47,0,0,0,3.64-.51c-37-21.38-73.09-42.32-109.26-63.2q-156.09-90.13-312.23-180.18c-6.78-3.91-9.75-9.46-9.74-17.19q.12-75.5.06-151c0-1.26.2-2.52.28-3.54h32.73v6.35q0,68-.08,136c0,3.39,1,5.26,4,7,25.58,14.6,51.06,29.39,76.56,44.11Q536.44,1498,727.39,1608.07a14.57,14.57,0,0,0,7,1.85q147.24.13,294.48,0a15.08,15.08,0,0,0,7-1.85c10.77-6,21.41-12.17,32.08-18.33L1441.49,1374l56.76-32.79V1194.15h29.8c.67,4.91,1.88,9.81,1.92,14.73.19,24.8.06,49.6.09,74.4q0,35.46.18,70.91l0-.08c-.35,1-.7,2.06-1.06,3.09ZM1289.87,1664a30,30,0,0,0-.78,4.82q-.08,44.18,0,88.35a28.6,28.6,0,0,0,.81,4.81c.38,1,.79,2.82,1.15,2.81,6.69-.14,13.37-.49,20-.8a16.17,16.17,0,0,0,.91-3.77c.06-31.41,0-62.82.08-94.23,0-3.6-1.36-4.35-4.86-4.22-4,.15-8.08-.71-12.06-1.42-2.59-.47-4.4.28-5,2.69Zm-738.95-.74H530.34v102.18l20.77-1.46c.31-3.14.89-6.29.9-9.43q.11-43.39,0-86.78A19.46,19.46,0,0,0,550.92,1663.27Zm1036.19-.15-1.77-.85c.25,3.42.68,6.62.69,9.81,0,28.71,0,57.41.06,86.12a44.26,44.26,0,0,0,.8,5.79l1.18,1.17a14.25,14.25,0,0,0,3.31.8q25.2.09,50.39,0c.68,0,1.35-.7,2-1.07V1749H1608v-85.81c-1.58-1.06-3.26-3.14-4.73-3-5.09.46-10.11,1.7-15.16,2.64A9.7,9.7,0,0,1,1587.11,1663.12ZM409,1662.85a23.27,23.27,0,0,0-4.3-.82q-29.19-.08-58.37,0a23.38,23.38,0,0,0-4.31.82c-.7,5.27-1.4,10.54-2.17,16.37h25.48v85.45h20.91v-85.92h24.94c0-4.56.14-8.72-.1-12.86C411.06,1664.84,409.77,1663.86,409,1662.85Zm644.14.13,2,.48a4.18,4.18,0,0,0-3.34-1.44q-24.24,0-48.49,0a23.51,23.51,0,0,0-4.32.83c-.66,1.54-1.91,3.08-1.91,4.63-.12,31-.09,62-.07,93,0,1.44.16,2.87.24,4.26H1018V1721.8h31.67V1706h-31.44v-27.12h35ZM517.06,1679V1663c-.06-2.85-1.65-3.15-4-2.61a45.28,45.28,0,0,1-9,1.58c-11.57.18-23.14,0-34.71.11a35.41,35.41,0,0,0-5.27.83c-3.86-.31-3,2.49-3,4.63q0,46.66,0,93.33v3.79H482V1722h31.64v-16.12H482.12V1680c9.75,0,19.49,0,29.23,0A37.7,37.7,0,0,0,517.06,1679Zm549,86.14a19.87,19.87,0,0,0,3.81.79q24.18.08,48.36,0a17.66,17.66,0,0,0,3.8-.81c.61-.61,1.73-1.21,1.75-1.85.15-4.6.08-9.22.08-14.3h-37.73v-29.08h31.46v-16.07h-31.49V1680c10.9,0,21.79,0,32.68-.06a21.57,21.57,0,0,0,4.34-.93c.15-4.2.12-8.41.5-12.59.27-2.94-1.13-3.65-3.59-3.59a35.78,35.78,0,0,0-5.3-.82q-19-.1-37.93,0c-3.58,0-7.16.51-10.74.79a18.07,18.07,0,0,0-1,4q-.07,47.13,0,94.25A17.62,17.62,0,0,0,1066.07,1765.18ZM588.13,1680c10.78,0,21.57,0,32.35-.08,1.82,0,3.63-.89,5.44-1.37-.12-3.9-.11-7.8-.41-11.68-.11-1.38-1-2.7-1.47-4.05-3.42-.28-6.84-.77-10.27-.81-10.95-.1-21.91.19-32.86-.15-4.37-.13-8.76-2.37-12.84.95l-1.2,1.18a31,31,0,0,0-.79,4.82q-.06,45.17,0,90.35a30,30,0,0,0,.81,4.81l1.17,1.18a19.17,19.17,0,0,0,3.81.8q24.69.08,49.38,0a17.66,17.66,0,0,0,3.79-.84c.38-5.29.76-10.59,1.17-16.4H588.12V1720h31.49v-16.1H588.13Zm-330.08,85.11c.37-5.3.73-10.6,1.13-16.39H221.09V1720H252.6v-16c-8.9,0-17.52-.23-26.13.08-4.78.18-6.45-1.52-5.36-6.09.31-4.57.84-9.14.87-13.71,0-3.26,1.23-4.38,4.42-4.32q11.7.21,23.4,0c2.75,0,5.5-.58,8.24-.89.19-4.7.48-9.4.43-14.1,0-.71-1.58-1.41-2.43-2.11a36,36,0,0,0-5.3-.83c-12-.07-23.94,0-35.92,0-1.66,0-3.77.54-4.89-.26-3.52-2.53-6.14-.89-8.87,1.13a13.58,13.58,0,0,0-1,3.53q-.08,47.61,0,95.22a13.72,13.72,0,0,0,1,3.54,36.87,36.87,0,0,0,5.28.82c9.27.08,18.55-.13,27.82.08,7.52.18,15,.84,22.56,1.14C257.14,1767.2,257.61,1765.85,258.05,1765.13Zm492.06,57.06c1.76,1.13,2.64,1.76,3.58,2.3q62.25,35.92,124.47,71.93c2.77,1.61,4.6,1.3,7.16-.19q61.95-35.91,124-71.67c1-.59,1.92-1.35,3.36-2.37Zm713.57-158.93v63.8a21.32,21.32,0,0,1-3.68-6.14c-8.1-18.05-16.17-36.11-24.4-54.1-.69-1.53-2.42-3.54-3.78-3.63-6.09-.39-12.23-.17-18.5-.17V1764.6h20.76v-64.88c1.35,2.7,2.12,4.1,2.77,5.56,8.37,18.65,16.69,37.33,25.14,56,.66,1.44,2.09,3.51,3.26,3.58,6.25.35,12.54.16,18.79.16V1663.26ZM291,1727.23h9.92c5.07,12.51,10.16,25.11,15.14,37.41h22.75c-6.09-14.57-12-28.61-17.93-42.91,12.17-7.15,15-18.41,14.41-31.32-.63-14.14-8.36-24.72-22.53-26.24-13.92-1.5-28.13-.33-42.44-.33v100.78H291Zm591.88-5.46c11.88-7.15,14.86-18,14.43-30.59-.5-14.69-8.26-25.53-22.76-27.06-13.91-1.47-28.1-.32-42.16-.32v101h20.57v-37.57h10c4.63,11.47,9.16,22.89,13.89,34.23.58,1.41,2.13,3.36,3.31,3.42,6.61.33,13.24.16,20.82.16ZM637.23,1765c10,0,19.51,0,29,0,18.1-.1,33.23-12,35.62-30a172.41,172.41,0,0,0,.77-37.79c-1.42-15.65-9.34-28.61-25.49-32.06-12.9-2.74-26.54-2-39.89-2.82Zm346.58-48.85c-1-9.93-1.22-18.49-2.95-26.72-3.35-15.93-16-26.74-30.8-27.4-19.51-.86-33.07,7.14-37.72,24.17a105.7,105.7,0,0,0,0,56.22c4.13,15.08,17,23.59,33.19,23.6,17.83,0,30-7.8,34.42-23.71C982.36,1733.44,982.7,1724,983.81,1716.13Zm416,.19c-1-10-1.22-18.52-2.93-26.75-3.41-16.38-16.37-27.23-31.67-27.58-20-.45-33,7.93-37.35,26a107.1,107.1,0,0,0,.38,54.3c4.12,15,16.88,23.69,32.59,23.75,18.33.08,30.59-7.6,35-23.56C1398.34,1733.6,1398.7,1724.17,1399.82,1716.32Zm117.67,48.43c1.57-6.28,3-12.39,4.69-18.45.33-1.21,1.47-3.12,2.28-3.14,8.76-.23,17.53-.14,26.1-.14,2,7.71,3.73,14.76,5.5,21.78h21.65c.08-.34.18-.52.14-.66q-15.39-49.44-30.91-98.84a4.13,4.13,0,0,0-3.09-2.17c-5.48-.22-11-.1-16.66-.1-10.56,33.88-21.06,67.6-31.69,101.72ZM1132,1733.36c.24,9,2.57,16.73,8.92,22.94,8.37,8.18,18.71,10.3,29.88,9.66,10.73-.61,20.18-4.21,25.07-14.44,5.14-10.78,4.47-21.67-2.38-31.74-4.69-6.9-12-10.24-19.24-13.69-5.07-2.41-10.24-4.83-14.79-8.06s-5.2-8.54-3.08-13.49c1.92-4.5,6-6.8,11.34-6.37,5.13.41,8.67,3.52,10,9a53.81,53.81,0,0,1,.76,5.35h20.33c.35-14.18-7.16-25.17-20.32-28.83a53.42,53.42,0,0,0-15.77-1.52c-12.89.4-23.71,8.69-27,20-3.62,12.39.71,24.59,12,32.17,4.52,3,9.66,5.12,14.52,7.64,3.68,1.91,7.59,3.48,11,5.82,4.82,3.33,5.38,8.51,4.52,13.88-.66,4.15-3,6.95-7.21,7.94-8.88,2.07-15.66-2.28-17.26-11.19-.28-1.6-.34-3.23-.52-5Zm77.28.05a14.88,14.88,0,0,0-.2,2.18c.76,12.32,6.37,21.56,17.69,26.81,10.26,4.75,21,5,31.61,1.5,9.83-3.28,15.78-10.38,17.2-20.69,1.57-11.38-.87-21.77-10.47-29-4.85-3.64-10.65-6-16-9-4.2-2.32-8.71-4.23-12.53-7.07-4.5-3.36-5.36-9-3-13.94,2-4.33,6.36-6.59,11.55-6s8.48,3.74,9.71,9.26c.39,1.71.59,3.46.85,5h20.17c.42-13.54-6.47-24.45-18.85-28.31a53.37,53.37,0,0,0-17.64-2c-12.89.47-23.62,9-26.78,20.33-3.37,12.06,1,24.23,12.1,31.75,4.5,3.06,9.66,5.13,14.51,7.65,3.68,1.91,7.59,3.48,11,5.81,4.82,3.32,5.49,8.46,4.63,13.85-.66,4.12-2.86,7-7.14,8-9,2.14-16-2.46-17.44-11.55-.23-1.45-.24-2.94-.37-4.61ZM751.38,1663v101.67H772V1728c5.66,0,10.8,0,15.94,0,17.1-.15,28.59-10.27,30.86-27.16,2.67-19.8-10.07-36.92-28.66-37.69C777.34,1662.61,764.51,1663,751.38,1663Zm-564.09,33.71c-.91-11.91-3.57-22.75-14.1-29.59-21.43-13.92-50.24-2.83-54.85,22.17-2.5,13.54-1.82,27.8-1.41,41.7.18,6.24,2.32,12.85,5.14,18.5,6.82,13.62,21.66,19.24,39.05,15.82,17-3.34,26.63-15.74,25.68-33.15H166.49c-.17,1.82-.28,3.29-.45,4.76-1.11,9.53-5.33,13.18-14.87,12.87-7.46-.24-12.42-4.45-13-13.06-.84-13.43-.84-26.93-.73-40.39a31.21,31.21,0,0,1,2.69-11c2.26-5.58,7.41-7.86,14.49-7.14,6.31.64,9.15,3,10.7,9.29.74,3,1,6.17,1.5,9.26Zm257.25,68V1663.27H424.28v101.52Z"/><path class="cls-2" d="M1528.05,1194.15h-29.8v147.06L1441.49,1374l-373.55,215.73c-10.67,6.16-21.31,12.35-32.08,18.33a15.08,15.08,0,0,1-7,1.85q-147.24.15-294.48,0a14.57,14.57,0,0,1-7-1.85q-191-110.07-381.86-220.3c-25.5-14.72-51-29.51-76.56-44.11-3-1.7-4-3.57-4-7q.18-68,.08-136v-6.35H232.33c-.08,1-.28,2.28-.28,3.54q0,75.49-.06,151c0,7.73,3,13.28,9.74,17.19q156.17,90,312.23,180.18c36.17,20.88,72.31,41.82,109.26,63.2a31.47,31.47,0,0,1-3.64.51q-137,0-274,0a14.81,14.81,0,0,1-7-2q-141.45-81.53-282.87-163.1c-4.05-2.34-5.28-4.84-5.28-9.35q.15-447.23-.17-894.45c0-9.59,2.77-14.41,11.08-19.14,65.36-37.23,130.38-75.07,195.53-112.68Q418.63,338.9,540.4,268.71,696.93,178.35,853.43,88c7.93-4.58,16-9,23.72-13.85,3.3-2.07,5.71-1.85,9,.05q58.05,33.75,116.26,67.25l298.35,172.27q183.75,106.09,367.54,212.13c3.11,1.8,4.36,3.6,4.36,7.3q-.15,452,0,904c0,3.51-1.15,5.3-4.1,7q-142.32,82-284.57,164.14a12.72,12.72,0,0,1-6,1.72q-137.75.1-275.49,0c-.49,0-1,0-2.58-.13,1.92-1.27,3.11-2.16,4.39-2.89q158.9-91.73,317.82-183.43c33.15-19.13,66.32-38.23,99.34-57.58,3-1.79,5.11-5.24,7.62-7.92a1,1,0,0,0,.26-.85l0,0c.36-1,.71-2.06,1.06-3.09l0,.08a40,40,0,0,0,.81-5.71q.06-74.77,0-149.54c0-1,.37-2.27-.1-2.92C1530.35,1195.14,1529.06,1194.75,1528.05,1194.15ZM975,513.06l-1.23-1a.65.65,0,0,1-.74-.4c.92-1.24,1.8-2.53,2.78-3.72.85-1,1.81-2,2.84-3.08l-12.26-4,5.16-4.25c-5.85-2.25-7.66,3.27-9.69,4.48-2.74-1.52-4.47-3.16-6.3-3.29-1.61-.1-3.33,1.48-5,2.32-3.32-.19-6.64-.56-10-.55-23,.06-43.42,8.4-62.6,20.28-24.51,15.18-44.51,35.32-62.56,57.56-3.83,4.72-7.76,9.36-11.94,14.39-12.85-35.68-18.9-72.17-25.09-109-6,4.75-11.56,8.92-16.76,13.51-1.44,1.26-2.19,3.73-2.53,5.77q-7.65,46-15.1,92c-5.8,35.51-17.93,68.41-40.09,97.17-1.34,1.74-2.61,3.54-3.91,5.31a22.59,22.59,0,0,0,8.65-5.82c7.92-9.45,15.47-19.22,23.32-28.74a9.41,9.41,0,0,1,5-3.14,86.9,86.9,0,0,0,31.26-12.37c8.58-5.59,17-11.5,25.46-17.3,6.84,14.32,14.92,28.29,26.34,39.93,3.65,3.73,4.82,6.94,4.25,12.44-1.76,16.92,5.35,31.74,13.51,45.94,1.05,1.82,4.56,3.5,6.65,3.21,6.15-.84,12.65-1.7,18.11-4.38C873.65,721,880.1,710.85,885.14,700c9.2-19.83,13.63-40.94,15.86-62.53.57-5.6,2.25-9.09,7.66-11.73,10.29-5,20.08-11.08,30-16.76,1.63-.93,3.1-2.14,4.72-3.28,1.11,3.14,1.85,5.7,2.9,8.13,2.85,6.53,6.39,8.16,13.14,5.48a66.64,66.64,0,0,0,11.38-6.1c4.1-2.65,7.89-5.77,11.88-8.72,2,3.31,3.72,6.35,5.63,9.26,5.87,8.92,14,14.61,24.58,16.4,19.23,3.26,37.14-1.05,52.22-12.81,7.3-5.7,14.17-7.4,22.82-7.57,19.74-.41,38.31-5,53.23-19.06,10.18-9.61,17.14-21.57,23.82-33.69,1-1.72,1.62-3.61,2.42-5.42l-1.09-.82c-25.37,19.66-50.38,40.08-84.57,41.49.46-5.85,1.26-11.11,1.2-16.37-.08-6.63-3-12-9.39-14.67-5.88-2.46-11.92-2.21-17,2-5.29,4.36-5.66,10.41-3.68,16.45,1.89,5.76,4.43,11.29,6.69,16.94-23.86,18.12-57.55,19.63-71,4.17,7.53-12.33,15-24.23,22.14-36.34,12.69-21.52,13.34-43.31,1.1-65.36-4.56-8.21-10.75-9.62-17.74-3.32a112.44,112.44,0,0,0-7.72,8.43c-4.81,1.9-6.5,4.91-5.19,9.22-7.78,18.79-11.83,38.53-7.62,58.39,2.52,11.87-1.87,17.46-10.75,22.34-3.43,1.88-6.89,3.72-9.36,5-.89-4.27-1.46-7.8-2.39-11.24-.86-3.17-2.1-6.23-3.18-9.34-.8-1.5-1.49-4.2-2.41-4.28-5.39-.48-11-1.1-16.55,3.35h7.64l-2.5,9.44-1.05.84-1.59-2.7c-.84.62-2.06,1.06-2.43,1.88a18.27,18.27,0,0,0-.81,4.31l-1.07.64-10.5.54,2.36,3.61-9.42-4.55c1,3.25,1.67,5.46,2.55,8.37h-9c0-.67,0-1.33-.05-2a47.61,47.61,0,0,1,1.91-5.85,10.81,10.81,0,0,0-.91-11.24c-1.58-2.44-2.77-5.14-4.61-8.62,3.2,1,4.9,2,6.61,2a4,4,0,0,0,3-2.27c.5-1.55.09-3.39.07-5.11-1.34,0-2.69,0-4,.12-2.43.15-5.13,1.11-7.22.36-4.76-1.72-9.55.72-9.82,5.64a30.22,30.22,0,0,1-.51,3.23h-8.87a11.83,11.83,0,0,1,.16-2.79c3.2-10.61,1.42-13.81-11.3-15.43-4.29-.54-3.64-2.87-3-5.63.35-1.42.64-2.85,1-4.28l.33-.15,4.78.45c-.15-.47-.3-.94-.46-1.41l13-7.13c1.91.93,3,5.53,7.73,3.12-3.93-2.23-6.24-4.92-5.07-9.29l0,0,3.12-1.94,0,0c.32.11.76.12.92.35,1.22,1.63,1.53,5.18,4.51,3.38,1.14-.69.8-3.91,1.06-6a4.92,4.92,0,0,0-.32-1.46.56.56,0,0,1,.69-.28c3.92-.3,8.3,1.76,11.41-2.39l4,2.59A22.76,22.76,0,0,0,912,525c.48-4.38,3-6.41,7.24-5.88,4.86.61,7.19-3,9.73-6.11l3.87-1.08c5.35-.6,10.68-1.24,16-1.76,1.47-.14,3.21-.38,4.41.23a18.68,18.68,0,0,0,15,1.34v0c.2,1.26,0,3,.72,3.68a6.75,6.75,0,0,0,4.29,1.36c.61,0,1.19-1.77,1.78-2.74C975.09,513.69,975.06,513.38,975,513.06Zm113.13-6c.55.65,1.11,1.3,1.67,1.94l10.28,7.27c0,.64,0,1.28,0,1.93l2,11.65-.06,3.08-5.73,12.16c5.79.55,11.71,1.35,17.64,1.63,14.75.69,29.12-.88,42.63-7.53,2.83-1.38,4.24-3,3.41-6.06-2.06-7.65-4.13-15.3-6.38-22.9-.27-.91-1.68-1.49-2.56-2.22l0-2.05c-.6-1.49-.92-3.18-1.83-4.45-4.3-6-8.75-11.91-13.15-17.84l-3-.67c.09-.34.17-.68.25-1l-1.07-2c-8.47-6.56-17.11-12.84-27.55-16l-1.79,9-1.17-.1c.12-1.32.11-2.66.36-3.95.89-4.61-.79-7.17-5.61-7.56-9.19-.75-18.37-1.58-27.56-2.37l-2.17,1.07c-1.23-.18-2.56-.76-3.65-.46-7.66,2-15.27,4.27-22.89,6.43l-3.13,1.72c-8.75,4.73-17,10.13-23.79,18.19,24.25,5,36.06,22.64,45.2,42.64.94-3.61,1.86-7.11,2.78-10.61.06-1,.12-2,.19-2.94l0-3h1.39c.94.34,2.24,1.24,2.76.92,2.28-1.45,4.34-3.25,6.48-4.92l16-.83ZM933.74,553.32,934,556l.25.24-.11.33c.24,2.24.47,4.47.75,7.1a39.17,39.17,0,0,0-4.34,2.29,13.41,13.41,0,0,0-2.25,2.58c1.28.39,2.66,1.29,3.82,1.06a36.92,36.92,0,0,0,7-2.37c7.62-3.16,7.9-3,9.11,4.42,4.92.17,5.76-.82,4.42-6.86-.69-3.11-.48-4.83,3.1-5,.66,0,1.28-.83,3-2L952.12,554,950,548.25c.32-3.34-1.52-4.35-4.49-4.25-3.75.12-7.51.37-11.24.17-2.56-.14-4.33.12-4.14,3.16.15,2.54-1.12,6.24,3.88,5.23A.47.47,0,0,1,933.74,553.32ZM672,830.18l-57,0c-4.64-.34-2.41,3.25-2.41,4.87q-.18,144.44-.11,288.89v4.78h60.53v-2.78q0-146,0-291.89A15.52,15.52,0,0,0,672,830.18Zm295,0h-3.78v298.78c20,0,39.83,0,59.62,0,.23,0,.47-.6.7-.92V1024c13.41,0,26.22.24,39-.08,8.63-.22,17.36-.54,25.82-2,31.22-5.51,54.23-22.11,66.36-51.92,7-17.28,8-35.5,6.48-54-4.11-48.5-39.49-84-87.8-85.65C1038.05,829.11,1002.54,830.13,967.06,830.16Zm564-56.35v-4.58c0-48.5-.17-97,.12-145.49,0-9.49-3.54-15.47-11.66-20.13q-140.43-80.79-280.67-161.89Q1065.29,341.51,891.73,241.2c-6.69-3.87-13-4.21-19.74-.3Q807.82,278,743.59,315.07L524.8,441.4Q383.2,523.17,241.59,604.92c-6.59,3.8-9.62,9.2-9.61,16.75q.11,74.25.06,148.49c0,1.26.21,2.51.29,3.48h32.74c0-43.87.43-87.37-.31-130.85-.18-10.29,3.21-15.19,11.84-20.13q153.79-88.11,307.14-177,147-84.87,294-169.82c2.75-1.59,4.71-1.83,7.64-.13q89,51.59,178.11,102.91,215.33,124.32,430.68,248.58c2.92,1.69,4,3.54,4,7-.13,44.83-.08,89.66-.08,134.49v5.16ZM865.92,1031.37c-1.7,10-2.91,19.59-5,29-3,13.43-12,21.23-25.45,23.36a80.15,80.15,0,0,1-17.9,1c-16.29-1.12-28.33-8.79-32.95-25-2.66-9.37-4.91-19.15-5.28-28.83-1-26.62-1.26-53.29-1.08-79.94a290.61,290.61,0,0,1,3-36.76c1.39-10.25,4.4-20.29,11.56-28.24,10.47-11.61,24.29-13,38.63-11.16,19.18,2.42,26.3,9.11,30.74,27.93a106.48,106.48,0,0,1,1.93,11.79c.6,5.05,1,10.13,1.39,15.09h60.54c-1.19-15.66-3.66-30.71-9.08-45.14-9.82-26.14-27.23-44.61-54.33-53.09-15.29-4.78-31-6-46.92-5.22-37.38,1.94-65.63,18.62-83,52.37-9.22,17.91-13.7,37.2-14.52,57.1-1,23.79-1,47.63-.9,71.45.12,18.84,2,37.56,7.8,55.66,10.25,32.21,29.4,56.1,62.94,66,19.84,5.85,40.14,5.82,60.36,2.3,29.81-5.2,53-19.85,66.08-48.16,7.51-16.23,10.36-33.43,11-51.41Zm60.06,486a27.48,27.48,0,0,0,3.77-.41c18.86-5.28,38-9.68,56.48-16.11,25.14-8.75,47.35-22.66,65.55-42.51,2.54-2.78,2.78-5,1.13-8.29a197,197,0,0,0-32-46.86c-1.3-1.4-2-3.37-3-5.08a211.07,211.07,0,0,1-38.5,52.63,271.68,271.68,0,0,1-45,35.54c-1.42.92-3.25,2.88-3.15,4.23C932,1499.67,930.13,1508.31,926,1517.33ZM886.2,1343c11.82,50.24,11.85,52.41,1.47,102.53l26.52,10.19c6.63-9.77,14.36-20.37,21.24-31.49,11.82-19.12,20.35-39.58,22.74-62.17.15-1.39-1.12-3.8-2.33-4.32A185.4,185.4,0,0,0,886.2,1343Zm-47.86,169.18c-.47-2.1-1.05-4-1.32-5.92-1-7.7-.91-15.74-3.16-23.06-12.53-40.87-38.49-69.06-79.68-82.44-3.17-1-5.14-.45-7.37,2a188.73,188.73,0,0,0-32.76,48.65,32.24,32.24,0,0,0-1.14,3.34C766.78,1447.84,804.37,1475.26,838.34,1512.18Zm16.57-56c7.85-5.46,15.91-8.63,24.91-9.4,1.16-.1,2.64-2.24,3.09-3.7,9.83-32,9.49-63.88-.76-95.73-1-3.08-2.4-4.37-5.61-3.93-11.52,1.6-23.21,2.37-34.54,4.86-11.49,2.52-22.63,6.69-34.94,10.45,15.33,13.17,26.93,27.16,35.08,43.89S853.85,1437.18,854.91,1456.21Zm76.27,26.18c34.25-21.71,63.63-48.85,81.65-86.68-8.86-11.09-40.92-32.85-49.42-33.57A137.49,137.49,0,0,1,946.73,1414c-9,15.82-19.22,31-28.67,46C922.19,1467.06,926.6,1474.58,931.18,1482.39Zm-92.89-4.18c1.58-3.15,2.68-5.77,4.14-8.17s3.53-4.46,4.88-6.92c1.19-2.18,2.54-4.74,2.46-7.08-1.34-37-15.76-67.84-44.09-92-2.51-2.14-4.44-2.37-7-.64-12.87,8.82-25.76,17.59-38.57,26.49a59,59,0,0,0-5.9,5.36C796.2,1409.08,823.06,1437.43,838.29,1478.21ZM717.11,656c-7.66,2.88-15,6.54-22.74,8.38-25.17,6-45.41-5.82-52.1-30.05a79.46,79.46,0,0,1,.08-42.91c4.76-17.17,18.18-29,33.9-30.31a57,57,0,0,1,36.56,9.14c2.05,1.31,4.06,2.68,6.29,4.17,1.19-1.76,2.07-3.08,2.91-4.34-11.39-11.22-25.22-16.77-42.36-16-28.5,1.3-55.51,15.11-59.17,50.52-2.09,20.2,1.79,38.65,17,53.64,18.37,18.14,49.36,17.83,70.25,9C713.32,664.9,715.47,660.7,717.11,656ZM600.94,671.68V555.36H585.18V671.68Zm99.35,776.74c6.09-9.75,11.83-19.8,18.43-29.25s14-18.27,21.14-27.39c-15.62-5.11-30.63.18-39.87,14C691.33,1418.67,691.51,1438.09,700.29,1448.42Zm174.94-115.94c-7.31-13.6-22.4-20-38-16.3s-28.53,18-28.88,31.59c10.89-3.16,21.71-6.83,32.78-9.37S863.72,1334.43,875.23,1332.48Zm-75.62,18.26c-13.41-10.37-30.23-10-43.28.46-11.82,9.49-18.11,27.75-13,38.37A213.3,213.3,0,0,1,799.61,1350.74Zm154.58-5.59c-2.31-15.42-17.74-29-33.64-30.15-14.74-1.09-29,6.61-32.66,17.77C910.56,1333,932.43,1337.45,954.19,1345.15Zm70.71,45.16a219.36,219.36,0,0,1,39.55,54.64,39.07,39.07,0,0,0-4.1-43.89C1051.3,1390.4,1037.15,1385.93,1024.9,1390.31Zm-4.2-3.81a39.42,39.42,0,0,0-21.84-40.68c-10.82-5.14-27.9-3.47-34.36,4C985.15,1358.63,1003.52,1370.92,1020.7,1386.5ZM1008.82,481q12.67-9.15,25.32-18.25c-6.19-4.53-11.91-4.74-18.17-.66S1007,473.35,1008.82,481Zm61.47-27.21,31,3.47c-1.87-7.18-6.1-11.38-12.7-12.16C1080.9,444.17,1074.68,446.74,1070.29,453.76Zm-4.68-.28c-4.8-6.22-10.62-8.09-17.79-5.66s-11.42,7.85-11.35,13.78Zm41.86,5.61,26.46,15.29c0-7.94-3.19-13.9-10.35-17.42A14.07,14.07,0,0,0,1107.47,459.09ZM1156.28,502c2.89-7,2.08-13.39-2.77-19.08a14.41,14.41,0,0,0-15.66-4.82C1144,486,1150,493.83,1156.28,502Zm9.8,31.88a17,17,0,0,0,4-20.56c-2.52-5.3-7.77-8.51-12.63-7.83,1.62,4.48,3.44,8.94,4.83,13.51C1163.73,523.71,1164.75,528.56,1166.08,533.86ZM1161.46,594a11,11,0,0,0-11.19,10.36c-.1,5.49,4.7,10.41,10.4,10.66a11,11,0,0,0,11.17-10.36C1172,599.15,1167.14,594.21,1161.46,594ZM906.91,559.62c-.7,1-1.59,1.86-1.46,2a13.19,13.19,0,0,0,2.19,2c.4-.61,1.24-1.32,1.12-1.79C908.57,561.15,907.74,560.57,906.91,559.62ZM955.61,546a6.21,6.21,0,0,0,.77-1.19c0-.1-.45-.54-.62-.51a4.54,4.54,0,0,0-1,.58Zm-26.44-29,.18,1,2.07-.83c-.09-.26-.19-.51-.28-.77ZM895,538.46a5.67,5.67,0,0,0-.42.71s.24.27.29.25a3.65,3.65,0,0,0,.62-.4Zm1.52,22.61a7,7,0,0,0,.71.41s.28-.24.25-.29a4.57,4.57,0,0,0-.39-.62Z"/><path class="cls-3" d="M750.11,1822.19h262.58c-1.44,1-2.35,1.78-3.36,2.37q-62,35.82-124,71.67c-2.56,1.49-4.39,1.8-7.16.19q-62.16-36.09-124.47-71.93C752.75,1824,751.87,1823.32,750.11,1822.19Z"/><path class="cls-3" d="M1463.68,1663.26H1484V1765c-6.25,0-12.54.19-18.79-.16-1.17-.07-2.6-2.14-3.26-3.58-8.45-18.62-16.77-37.3-25.14-56-.65-1.46-1.42-2.86-2.77-5.56v64.88h-20.76V1663c6.27,0,12.41-.22,18.5.17,1.36.09,3.09,2.1,3.78,3.63,8.23,18,16.3,36,24.4,54.1a21.32,21.32,0,0,0,3.68,6.14Z"/><path class="cls-3" d="M291,1727.23v37.39H270.27V1663.84c14.31,0,28.52-1.17,42.44.33,14.17,1.52,21.9,12.1,22.53,26.24.58,12.91-2.24,24.17-14.41,31.32,6,14.3,11.84,28.34,17.93,42.91H316c-5-12.3-10.07-24.9-15.14-37.41Zm.08-47.81v31.41c18.89.94,24-2.85,23.54-16.86C314.13,1680.86,308.76,1677.46,291,1679.42Z"/><path class="cls-3" d="M882.83,1721.77,900.89,1765c-7.58,0-14.21.17-20.82-.16-1.18-.06-2.73-2-3.31-3.42-4.73-11.34-9.26-22.76-13.89-34.23h-10v37.57H832.34v-101c14.06,0,28.25-1.15,42.16.32,14.5,1.53,22.26,12.37,22.76,27.06C897.69,1703.79,894.71,1714.62,882.83,1721.77Zm-29.49-42.52v31.43c17.14,1.67,23-2,23.23-14.5C876.88,1681.43,872.16,1677.94,853.34,1679.25Z"/><path class="cls-3" d="M637.23,1765V1662.27c13.35.81,27,.08,39.89,2.82,16.15,3.45,24.07,16.41,25.49,32.06a172.41,172.41,0,0,1-.77,37.79c-2.39,18-17.52,29.93-35.62,30C656.74,1765,647.25,1765,637.23,1765Zm20.71-16.46c14.33,2,22.37-2.24,23.48-14.36a213,213,0,0,0,0-40.32c-1.22-12.31-11.08-17.39-23.46-14.07Z"/><path class="cls-3" d="M983.81,1716.13c-1.11,7.88-1.45,17.31-3.9,26.16-4.39,15.91-16.59,23.73-34.42,23.71-16.22,0-29.06-8.52-33.19-23.6a105.7,105.7,0,0,1,0-56.22c4.65-17,18.21-25,37.72-24.17,14.77.66,27.45,11.47,30.8,27.4C982.59,1697.64,982.77,1706.2,983.81,1716.13Zm-20.92-2c-.95-8.16-1.14-16.73-3.09-24.88-2.54-10.62-14.6-15-22.1-8.1a21.72,21.72,0,0,0-6.37,12.91c-1.08,11.89-.9,23.9-.93,35.87a30.37,30.37,0,0,0,1.71,8.77c2.27,7.51,6.92,11.08,14,11.14s12.18-3.35,13.83-11.16S961.94,1722.6,962.89,1714.13Z"/><path class="cls-3" d="M1399.82,1716.32c-1.12,7.85-1.48,17.28-4,26.12-4.44,16-16.7,23.64-35,23.56-15.71-.06-28.47-8.79-32.59-23.75a107.1,107.1,0,0,1-.38-54.3c4.4-18,17.35-26.41,37.35-26,15.3.35,28.26,11.2,31.67,27.58C1398.6,1697.8,1398.78,1706.36,1399.82,1716.32Zm-20.92-2c-1-8.22-1.19-16.77-3.06-24.95-2.24-9.85-11.55-14-20.06-9.86-6.12,3-8.24,8.79-8.62,14.8-.72,11.77-.76,23.59-.77,35.39a32,32,0,0,0,1.79,9.26c2.26,7.32,7.17,10.9,14.29,10.83,6.9-.06,11.87-3.44,13.47-11C1377.61,1731,1377.94,1722.78,1378.9,1714.37Z"/><path class="cls-3" d="M1517.49,1764.75h-22c10.63-34.12,21.13-67.84,31.69-101.72,5.69,0,11.18-.12,16.66.1a4.13,4.13,0,0,1,3.09,2.17q15.58,49.38,30.91,98.84c0,.14-.06.32-.14.66h-21.65c-1.77-7-3.55-14.07-5.5-21.78-8.57,0-17.34-.09-26.1.14-.81,0-2,1.93-2.28,3.14C1520.51,1752.36,1519.06,1758.47,1517.49,1764.75Zm19.64-71.87-.84-.17-8.8,34H1546C1543,1715.22,1540.05,1704.05,1537.13,1692.88Z"/><path class="cls-3" d="M1132,1733.36h20.72c.18,1.8.24,3.43.52,5,1.6,8.91,8.38,13.26,17.26,11.19,4.26-1,6.55-3.79,7.21-7.94.86-5.37.3-10.55-4.52-13.88-3.39-2.34-7.3-3.91-11-5.82-4.86-2.52-10-4.61-14.52-7.64-11.28-7.58-15.61-19.78-12-32.17,3.3-11.31,14.12-19.6,27-20a53.42,53.42,0,0,1,15.77,1.52c13.16,3.66,20.67,14.65,20.32,28.83h-20.33a53.81,53.81,0,0,0-.76-5.35c-1.32-5.44-4.86-8.55-10-9-5.32-.43-9.42,1.87-11.34,6.37-2.12,5-1.36,10.35,3.08,13.49s9.72,5.65,14.79,8.06c7.25,3.45,14.55,6.79,19.24,13.69,6.85,10.07,7.52,21,2.38,31.74-4.89,10.23-14.34,13.83-25.07,14.44-11.17.64-21.51-1.48-29.88-9.66C1134.61,1750.09,1132.28,1742.38,1132,1733.36Z"/><path class="cls-3" d="M1209.32,1733.41h20.51c.13,1.67.14,3.16.37,4.61,1.42,9.09,8.43,13.69,17.44,11.55,4.28-1,6.48-3.87,7.14-8,.86-5.39.19-10.53-4.63-13.85-3.39-2.33-7.3-3.9-11-5.81-4.85-2.52-10-4.59-14.51-7.65-11.06-7.52-15.47-19.69-12.1-31.75,3.16-11.31,13.89-19.86,26.78-20.33a53.37,53.37,0,0,1,17.64,2c12.38,3.86,19.27,14.77,18.85,28.31h-20.17c-.26-1.58-.46-3.33-.85-5-1.23-5.52-4.59-8.69-9.71-9.26s-9.52,1.68-11.55,6c-2.31,4.94-1.45,10.58,3,13.94,3.82,2.84,8.33,4.75,12.53,7.07,5.37,3,11.17,5.35,16,9,9.6,7.22,12,17.61,10.47,29-1.42,10.31-7.37,17.41-17.2,20.69-10.63,3.54-21.35,3.25-31.61-1.5-11.32-5.25-16.93-14.49-17.69-26.81A14.88,14.88,0,0,1,1209.32,1733.41Z"/><path class="cls-3" d="M751.38,1663c13.13,0,26-.43,38.75.11,18.59.77,31.33,17.89,28.66,37.69-2.27,16.89-13.76,27-30.86,27.16-5.14,0-10.28,0-15.94,0v36.71H751.38Zm20.79,16.21v32.39c18.17,1.19,25,1.12,25.8-14.8C798.69,1682,792.32,1677.86,772.17,1679.25Z"/><path class="cls-3" d="M221.11,1698c-1.09,4.57.58,6.27,5.36,6.09,8.61-.31,17.23-.08,26.13-.08v16H221.09v28.75h38.09c-.4,5.79-.76,11.09-1.13,16.39l-57,0a13.72,13.72,0,0,1-1-3.54q-.09-47.61,0-95.22a13.58,13.58,0,0,1,1-3.53h55c.85.7,2.43,1.4,2.43,2.11,0,4.7-.24,9.4-.43,14.1H221.11Z"/><path class="cls-3" d="M624,1662.84c.51,1.35,1.36,2.67,1.47,4.05.3,3.88.29,7.78.41,11.68-11.13.14-22.26.24-33.39.46a21.77,21.77,0,0,0-4.4,1v23.84h31.48V1720H588.12v28.76h38.09c-.41,5.81-.79,11.11-1.17,16.4l-57,.05-1.17-1.18q0-50,0-100l1.2-1.18Z"/><path class="cls-3" d="M1120,1662.85c2.46-.06,3.86.65,3.59,3.59-.38,4.18-.35,8.39-.5,12.59-11.05,0-22.1-.07-33.15,0a15.75,15.75,0,0,0-3.87,1v23.83h31.49v16.07h-31.46V1749h37.73c0,5.08.07,9.7-.08,14.3,0,.64-1.14,1.24-1.75,1.85l-56,0a17.62,17.62,0,0,1-1-4.06q-.07-47.11,0-94.25a18.07,18.07,0,0,1,1-4Z"/><path class="cls-3" d="M187.29,1696.75H166.86c-.49-3.09-.76-6.23-1.5-9.26-1.55-6.31-4.39-8.65-10.7-9.29-7.08-.72-12.23,1.56-14.49,7.14a31.21,31.21,0,0,0-2.69,11c-.11,13.46-.11,27,.73,40.39.54,8.61,5.5,12.82,13,13.06,9.54.31,13.76-3.34,14.87-12.87.17-1.47.28-2.94.45-4.76H186.8c.95,17.41-8.68,29.81-25.68,33.15-17.39,3.42-32.23-2.2-39.05-15.82-2.82-5.65-5-12.26-5.14-18.5-.41-13.9-1.09-28.16,1.41-41.7,4.61-25,33.42-36.09,54.85-22.17C183.72,1674,186.38,1684.84,187.29,1696.75Z"/><path class="cls-3" d="M482.12,1680v25.87h31.49V1722H482v42.61H461.06v-3.79q0-46.66,0-93.33c0-2.14-.87-4.94,3-4.63l53,.09q0,8,0,16.09c-10.53,0-21-.07-31.58,0A12.94,12.94,0,0,0,482.12,1680Z"/><path class="cls-3" d="M1053.18,1663v15.86h-35V1706h31.44v15.84H1018v42.93H997.32c-.08-1.39-.24-2.82-.24-4.26,0-31-.05-62,.07-93,0-1.55,1.25-3.09,1.91-4.63Z"/><path class="cls-3" d="M409,1662.85c.73,1,2,2,2.08,3,.24,4.14.1,8.3.1,12.86H386.28v85.92H365.37v-85.45H339.89c.77-5.83,1.47-11.1,2.17-16.37Z"/><path class="cls-3" d="M1588.07,1765.16l-1.18-1.17c.06-1.83.18-3.65.18-5.48q0-47.7,0-95.39a9.7,9.7,0,0,0,1-.28l19.89.37V1749h35.84v15.86Z"/><path class="cls-3" d="M444.54,1764.79H424.28V1663.27h20.26Z"/><path class="cls-3" d="M551.11,1764l-20.77,1.46V1663.27h20.58c0,17.45-.06,34.91,0,52.37C550.92,1731.75,551,1747.87,551.11,1764Z"/><path class="cls-3" d="M1311.1,1764c-6.68.31-13.36.66-20,.8-.36,0-.77-1.83-1.15-2.81l0-98,.3-1h20.71c0,10.9,0,21.32,0,31.74Q1311,1729.4,1311.1,1764Z"/><path class="cls-4" d="M1528.05,1194.15c1,.6,2.3,1,2.94,1.87.47.65.1,1.92.1,2.92q0,74.77,0,149.54a40,40,0,0,1-.81,5.71q-.09-35.46-.18-70.91c0-24.8.1-49.6-.09-74.4C1529.93,1204,1528.72,1199.06,1528.05,1194.15Z"/><path class="cls-4" d="M1311.1,1764q-.11-34.61-.21-69.21c0-10.42,0-20.84,0-31.74h-20.71c.6-2.41,2.41-3.16,5-2.69,4,.71,8.06,1.57,12.06,1.42,3.5-.13,4.87.62,4.86,4.22-.06,31.41,0,62.82-.08,94.23A16.17,16.17,0,0,1,1311.1,1764Z"/><path class="cls-4" d="M1587.11,1663.12q0,47.7,0,95.39c0,1.83-.12,3.65-.18,5.48a44.26,44.26,0,0,1-.8-5.79c0-28.71,0-57.41-.06-86.12,0-3.19-.44-6.39-.69-9.81Z"/><path class="cls-4" d="M551.11,1764c-.08-16.12-.19-32.24-.22-48.35,0-17.46,0-34.92,0-52.37a19.46,19.46,0,0,1,1.08,4.51q.11,43.4,0,86.78C552,1757.7,551.42,1760.85,551.11,1764Z"/><path class="cls-4" d="M566.87,1664q0,50,0,100a30,30,0,0,1-.81-4.81q-.06-45.18,0-90.35A31,31,0,0,1,566.87,1664Z"/><path class="cls-4" d="M1289.87,1664l0,98a28.6,28.6,0,0,1-.81-4.81q-.08-44.17,0-88.35A30,30,0,0,1,1289.87,1664Z"/><path class="cls-4" d="M409,1662.85h-67a23.38,23.38,0,0,1,4.31-.82q29.17-.08,58.37,0A23.27,23.27,0,0,1,409,1662.85Z"/><path class="cls-4" d="M624,1662.84h-56c4.08-3.32,8.47-1.08,12.84-.95,11,.34,21.91,0,32.86.15C617.2,1662.07,620.62,1662.56,624,1662.84Z"/><path class="cls-4" d="M517.07,1663l-53-.09a35.41,35.41,0,0,1,5.27-.83c11.57-.07,23.14.07,34.71-.11a45.28,45.28,0,0,0,9-1.58C515.42,1659.8,517,1660.1,517.07,1663Z"/><path class="cls-4" d="M256,1662.86h-55c2.73-2,5.35-3.66,8.87-1.13,1.12.8,3.23.26,4.89.26,12,0,24,0,35.92,0A36,36,0,0,1,256,1662.86Z"/><path class="cls-4" d="M201.06,1765.15l57,0c-.44.72-.91,2.07-1.33,2.06-7.52-.3-15-1-22.56-1.14-9.27-.21-18.55,0-27.82-.08A36.87,36.87,0,0,1,201.06,1765.15Z"/><path class="cls-4" d="M1053.18,1663l-54.12-.12a23.51,23.51,0,0,1,4.32-.83q24.24-.08,48.49,0a4.18,4.18,0,0,1,3.34,1.44Z"/><path class="cls-4" d="M1588.07,1765.16l55.73-.28c-.68.37-1.35,1.07-2,1.07q-25.2.09-50.39,0A14.25,14.25,0,0,1,1588.07,1765.16Z"/><path class="cls-4" d="M568.06,1765.17l57-.05a17.66,17.66,0,0,1-3.79.84q-24.69.09-49.38,0A19.17,19.17,0,0,1,568.06,1765.17Z"/><path class="cls-4" d="M1066.07,1765.18l56,0a17.66,17.66,0,0,1-3.8.81q-24.18.09-48.36,0A19.87,19.87,0,0,1,1066.07,1765.18Z"/><path class="cls-4" d="M1120,1662.85l-54,0c3.58-.28,7.16-.76,10.74-.79q19-.13,37.93,0A35.78,35.78,0,0,1,1120,1662.85Z"/><path class="cls-4" d="M221.11,1698v-18.92H258c-2.74.31-5.49.85-8.24.89q-11.7.19-23.4,0c-3.19-.06-4.4,1.06-4.42,4.32C222,1688.85,221.42,1693.42,221.11,1698Z"/><path class="cls-4" d="M588.13,1680a21.77,21.77,0,0,1,4.4-1c11.13-.22,22.26-.32,33.39-.46-1.81.48-3.62,1.35-5.44,1.37C609.7,1680.07,598.91,1680,588.13,1680Z"/><path class="cls-4" d="M1086.11,1680a15.75,15.75,0,0,1,3.87-1c11-.07,22.1,0,33.15,0a21.57,21.57,0,0,1-4.34.93C1107.9,1680.05,1097,1680,1086.11,1680Z"/><path class="cls-4" d="M482.12,1680a12.94,12.94,0,0,1,3.36-1c10.53-.06,21,0,31.58,0a37.7,37.7,0,0,1-5.71.92C501.61,1680.06,491.87,1680,482.12,1680Z"/><path class="cls-4" d="M1608,1663.21l-19.89-.37c5-.94,10.07-2.18,15.16-2.64C1604.7,1660.07,1606.38,1662.15,1608,1663.21Z"/><path class="cls-4" d="M1530.29,1354.11c-.35,1-.7,2.06-1.06,3.09C1529.59,1356.17,1529.94,1355.14,1530.29,1354.11Z"/><path class="cls-4" d="M1529.28,1357.15a1,1,0,0,1-.26.85,4.13,4.13,0,0,1-.11-.69C1528.92,1357.25,1529.15,1357.2,1529.28,1357.15Z"/><path class="cls-4" d="M1531.09,773.81h-33v-5.16c0-44.83,0-89.66.08-134.49,0-3.42-1.07-5.27-4-7Q1278.76,503,1063.45,378.62,974.38,327.2,885.34,275.71c-2.93-1.7-4.89-1.46-7.64.13q-146.94,85-294,169.82-153.51,88.62-307.14,177c-8.63,4.94-12,9.84-11.84,20.13.74,43.48.31,87,.31,130.85H232.33c-.08-1-.29-2.22-.29-3.48q0-74.24-.06-148.49c0-7.55,3-12.95,9.61-16.75Q383.22,523.22,524.8,441.4L743.59,315.07Q807.79,278,872,240.9c6.74-3.91,13-3.57,19.74.3q173.53,100.33,347.15,200.52,140.31,81,280.67,161.89c8.12,4.66,11.71,10.64,11.66,20.13-.29,48.5-.13,97-.12,145.49Z"/><path class="cls-1" d="M967.06,830.16c35.48,0,71-1,106.42.15,48.31,1.65,83.69,37.15,87.8,85.65,1.56,18.51.54,36.73-6.48,54-12.13,29.81-35.14,46.41-66.36,51.92-8.46,1.49-17.19,1.81-25.82,2-12.8.32-25.61.08-39,.08v104H976.66c-12.59,0-12.6,0-12.6-12.89Q964,977,964,839C964,835.55,964.17,832.44,967.06,830.16Zm56.72,143.69c14.54,0,28.84.33,43.12-.09,15.79-.46,26.64-9,31.09-24.22a71.88,71.88,0,0,0-1-44.21c-4.53-13.23-12.82-23.66-27.67-24.73-15-1.08-30.23-.23-45.55-.23Z"/><path class="cls-1" d="M865.92,1031.37h59.54c-.61,18-3.46,35.18-11,51.41-13.08,28.31-36.27,43-66.08,48.16-20.22,3.52-40.52,3.55-60.36-2.3-33.54-9.89-52.69-33.78-62.94-66-5.76-18.1-7.68-36.82-7.8-55.66-.14-23.82-.08-47.66.9-71.45.82-19.9,5.3-39.19,14.52-57.1,17.37-33.75,45.62-50.43,83-52.37,15.88-.83,31.63.44,46.92,5.22,27.1,8.48,44.51,27,54.33,53.09,5.42,14.43,7.89,29.48,9.08,45.14H865.52c-.44-5-.79-10-1.39-15.09a106.48,106.48,0,0,0-1.93-11.79c-4.44-18.82-11.56-25.51-30.74-27.93-14.34-1.81-28.16-.45-38.63,11.16-7.16,8-10.17,18-11.56,28.24a290.61,290.61,0,0,0-3,36.76c-.18,26.65.09,53.32,1.08,79.94.37,9.68,2.62,19.46,5.28,28.83,4.62,16.24,16.66,23.91,32.95,25a80.15,80.15,0,0,0,17.9-1c13.48-2.13,22.4-9.93,25.45-23.36C863,1051,864.22,1041.37,865.92,1031.37Z"/><path class="cls-4" d="M947.9,578.55c1.08,3.11,2.32,6.17,3.18,9.34.93,3.44,1.5,7,2.39,11.24,2.47-1.33,5.93-3.17,9.36-5,8.88-4.88,13.27-10.47,10.75-22.34-4.21-19.86-.16-39.6,7.62-58.39l5.19-9.22a112.44,112.44,0,0,1,7.72-8.43c7-6.3,13.18-4.89,17.74,3.32,12.24,22.05,11.59,43.84-1.1,65.36-7.13,12.11-14.61,24-22.14,36.34,13.46,15.46,47.15,13.95,71-4.17-2.26-5.65-4.8-11.18-6.69-16.94-2-6-1.61-12.09,3.68-16.45,5.06-4.18,11.1-4.43,17-2,6.35,2.66,9.31,8,9.39,14.67.06,5.26-.74,10.52-1.2,16.37,34.19-1.41,59.2-21.83,84.57-41.49l1.09.82c-.8,1.81-1.46,3.7-2.42,5.42-6.68,12.12-13.64,24.08-23.82,33.69-14.92,14.1-33.49,18.65-53.23,19.06-8.65.17-15.52,1.87-22.82,7.57-15.08,11.76-33,16.07-52.22,12.81-10.58-1.79-18.71-7.48-24.58-16.4-1.91-2.91-3.63-6-5.63-9.26-4,2.95-7.78,6.07-11.88,8.72a66.64,66.64,0,0,1-11.38,6.1c-6.75,2.68-10.29,1.05-13.14-5.48-1.05-2.43-1.79-5-2.9-8.13-1.62,1.14-3.09,2.35-4.72,3.28-10,5.68-19.75,11.74-30,16.76-5.41,2.64-7.09,6.13-7.66,11.73-2.23,21.59-6.66,42.7-15.86,62.53-5,10.89-11.49,21-22.58,26.47-5.46,2.68-12,3.54-18.11,4.38-2.09.29-5.6-1.39-6.65-3.21-8.16-14.2-15.27-29-13.51-45.94.57-5.5-.6-8.71-4.25-12.44-11.42-11.64-19.5-25.61-26.34-39.93-8.51,5.8-16.88,11.71-25.46,17.3A86.9,86.9,0,0,1,737,659a9.41,9.41,0,0,0-5,3.14c-7.85,9.52-15.4,19.29-23.32,28.74a22.59,22.59,0,0,1-8.65,5.82c1.3-1.77,2.57-3.57,3.91-5.31,22.16-28.76,34.29-61.66,40.09-97.17q7.51-46,15.1-92c.34-2,1.09-4.51,2.53-5.77,5.2-4.59,10.78-8.76,16.76-13.51,6.19,36.81,12.24,73.3,25.09,109,4.18-5,8.11-9.67,11.94-14.39,18-22.24,38-42.38,62.56-57.56,19.18-11.88,39.57-20.22,62.6-20.28,3.32,0,6.64.36,10,.55L965,506h0l8,5.65a.65.65,0,0,0,.74.4c.14.33.28.66.41,1l-5.9-1.38v0c-11.84-4.31-23.65-3.55-35.45.19L929,513l-33.24,14.87a.56.56,0,0,0-.69.28l-6.17,3.71,0,0-3.12,1.94,0,0-20,14.26-.33.15c-1.42,1.15-2.88,2.26-4.26,3.46-18.86,16.38-33.32,36.66-49.13,55.74a4.61,4.61,0,0,0-.58,4c6.9,15.21,15.31,29.47,27.17,41.87,14.79-16.32,32-29.31,50.8-40.25,6.38-3.71,6.78-4.77,5.5-12.56-1.15,1.4-2.18,2.7-3.25,4-7.64,8.92-16.11,16.84-26.85,21.95-7.41,3.52-12.32,1.9-15-5.8a212.34,212.34,0,0,1-7.2-25.36c-.72-3.32,0-7.36,1.28-10.63a38,38,0,0,1,15-18.18c6.69-4.42,10.18-3.35,13.68,3.85l.62,1.87c.21.44.43.87.64,1.31a.44.44,0,0,0,.22.65c1.06,3.57,2.13,7.14,2.87,9.65-3.07.29-6.24-.25-8.47.94-9.34,5-15.32,12.91-17.79,23.66,21.88-4.87,32.29-23.21,45.85-40.46C899,578.7,901,588.35,903.06,598c0,.67,0,1.33.05,2-.08,1.63-.16,3.25-.3,6.32L927.13,592l1.07-.64L933,587.9l1.05-.84,12.43-10.66C946.91,577,947.41,577.78,947.9,578.55Zm-56.49,57.3c-22.59,14.35-42.95,29.39-56,52.15-2.54,4.44-3.61,10-4.38,15.14-.84,5.65,1.71,7.88,7.35,8,9.1.22,16.85-3.18,23.74-8.82,8.18-6.69,13.72-15.32,17.92-24.86C885.76,664.55,889.21,651,891.41,635.85Zm-144-3.17a127.83,127.83,0,0,0,36.91-20.75c.82-.65,1-2.9.6-4.2-5-18.56-10.08-37.08-15.18-55.6-.38-1.41-.89-2.77-1.34-4.16C763.45,576.62,759,604.87,747.38,632.68Zm232.5-53c15.27-16.76,26.59-35.74,33-57.44.92-3.1,1.29-8.42-.44-9.84-4.08-3.34-7.9.6-11.33,3.2a9.4,9.4,0,0,0-1.41,1.41C984.35,535,979.65,556.51,979.88,579.66Zm82.39,6,.72,1.92c1.64.48,4.36,1.8,4.75,1.3a112.82,112.82,0,0,0,6.55-10.16l-1.9-1.56Z"/><path class="cls-1" d="M615.06,830.16l57,0q0,145.91,0,291.8c0,.67-.06,1.34,0,2,.28,3.06-1.19,4.06-4.14,4q-24.48-.12-49,0c-3.15,0-4.77-1.37-4.9-4.32-.16-3.45,0-6.92,0-10.38q0-137.4,0-274.81A70,70,0,0,1,615.06,830.16Z"/><path class="cls-4" d="M926,1517.33c4.15-9,6-17.66,5.34-26.86-.1-1.35,1.73-3.31,3.15-4.23a271.68,271.68,0,0,0,45-35.54,211.07,211.07,0,0,0,38.5-52.63c1,1.71,1.68,3.68,3,5.08a197,197,0,0,1,32,46.86c1.65,3.3,1.41,5.51-1.13,8.29-18.2,19.85-40.41,33.76-65.55,42.51-18.46,6.43-37.62,10.83-56.48,16.11A27.48,27.48,0,0,1,926,1517.33Z"/><path class="cls-4" d="M886.2,1343a185.4,185.4,0,0,1,69.64,14.74c1.21.52,2.48,2.93,2.33,4.32-2.39,22.59-10.92,43-22.74,62.17-6.88,11.12-14.61,21.72-21.24,31.49l-26.52-10.19C898.05,1395.41,898,1393.24,886.2,1343Z"/><path class="cls-4" d="M838.34,1512.18c-34-36.92-71.56-64.34-125.43-57.45a32.24,32.24,0,0,1,1.14-3.34,188.73,188.73,0,0,1,32.76-48.65c2.23-2.43,4.2-3,7.37-2,41.19,13.38,67.15,41.57,79.68,82.44,2.25,7.32,2.12,15.36,3.16,23.06C837.29,1508.19,837.87,1510.08,838.34,1512.18Z"/><path class="cls-4" d="M854.91,1456.21c-1.06-19-4.62-36.85-12.77-53.56s-19.75-30.72-35.08-43.89c12.31-3.76,23.45-7.93,34.94-10.45,11.33-2.49,23-3.26,34.54-4.86,3.21-.44,4.62.85,5.61,3.93,10.25,31.85,10.59,63.75.76,95.73-.45,1.46-1.93,3.6-3.09,3.7C870.82,1447.58,862.76,1450.75,854.91,1456.21Z"/><path class="cls-4" d="M931.18,1482.39c-4.58-7.81-9-15.33-13.12-22.39,9.45-15.08,19.65-30.22,28.67-46a137.49,137.49,0,0,0,16.68-51.82c8.5.72,40.56,22.48,49.42,33.57C994.81,1433.54,965.43,1460.68,931.18,1482.39Z"/><path class="cls-4" d="M838.29,1478.21c-15.23-40.78-42.09-69.13-84-83a59,59,0,0,1,5.9-5.36c12.81-8.9,25.7-17.67,38.57-26.49,2.52-1.73,4.45-1.5,7,.64,28.33,24.19,42.75,55,44.09,92,.08,2.34-1.27,4.9-2.46,7.08-1.35,2.46-3.41,4.52-4.88,6.92S839.87,1475.06,838.29,1478.21Z"/><path class="cls-3" d="M872.68,570.15c-3.5-7.2-7-8.27-13.68-3.85a38,38,0,0,0-15,18.18c-1.24,3.27-2,7.31-1.28,10.63a212.34,212.34,0,0,0,7.2,25.36c2.7,7.7,7.61,9.32,15,5.8,10.74-5.11,19.21-13,26.85-21.95,1.07-1.25,2.1-2.55,3.25-4,1.28,7.79.88,8.85-5.5,12.56-18.82,10.94-36,23.93-50.8,40.25-11.86-12.4-20.27-26.66-27.17-41.87a4.61,4.61,0,0,1,.58-4c15.81-19.08,30.27-39.36,49.13-55.74,1.38-1.2,2.84-2.31,4.26-3.46-.32,1.43-.61,2.86-1,4.28-.68,2.76-1.33,5.09,3,5.63,12.72,1.62,14.5,4.82,11.3,15.43a11.83,11.83,0,0,0-.16,2.79h8.87a30.22,30.22,0,0,0,.51-3.23c.27-4.92,5.06-7.36,9.82-5.64,2.09.75,4.79-.21,7.22-.36,1.34-.08,2.69-.08,4-.12,0,1.72.43,3.56-.07,5.11a4,4,0,0,1-3,2.27c-1.71,0-3.41-1-6.61-2,1.84,3.48,3,6.18,4.61,8.62a10.81,10.81,0,0,1,.91,11.24,47.61,47.61,0,0,0-1.91,5.85c-2-9.65-4.11-19.3-6.44-30.23-13.56,17.25-24,35.59-45.85,40.46,2.47-10.75,8.45-18.66,17.79-23.66,2.23-1.19,5.4-.65,8.47-.94-.74-2.51-1.81-6.08-2.87-9.65,1.19-1.59,3.67-3.64,3.3-4.69-.93-2.69-3.13-4.94-4.83-7.37L871.2,563a33.55,33.55,0,0,1,2.33,4.64C873.75,568.31,873,569.3,872.68,570.15Z"/><path class="cls-4" d="M717.11,656c-1.64,4.74-3.79,8.94-9.39,11.3-20.89,8.78-51.88,9.09-70.25-9-15.2-15-19.08-33.44-17-53.64,3.66-35.41,30.67-49.22,59.17-50.52,17.14-.78,31,4.77,42.36,16-.84,1.26-1.72,2.58-2.91,4.34-2.23-1.49-4.24-2.86-6.29-4.17a57,57,0,0,0-36.56-9.14c-15.72,1.32-29.14,13.14-33.9,30.31a79.46,79.46,0,0,0-.08,42.91c6.69,24.23,26.93,36,52.1,30.05C702.13,662.5,709.45,658.84,717.11,656Z"/><path class="cls-4" d="M600.94,671.68H585.18V555.36h15.76Z"/><path class="cls-4" d="M1151.06,508c.88.73,2.29,1.31,2.56,2.22,2.25,7.6,4.32,15.25,6.38,22.9.83,3.07-.58,4.68-3.41,6.06-13.51,6.65-27.88,8.22-42.63,7.53-5.93-.28-11.85-1.08-17.64-1.63l5.73-12.16c3.69-1,7.43-1.81,11-3C1127.29,525.3,1140.6,519.11,1151.06,508Z"/><path class="cls-4" d="M700.29,1448.42c-8.78-10.33-9-29.75-.3-42.67,9.24-13.79,24.25-19.08,39.87-14-7.1,9.12-14.55,18-21.14,27.39S706.38,1438.67,700.29,1448.42Z"/><path class="cls-4" d="M875.23,1332.48c-11.51,2-22.91,3.37-34.06,5.92s-21.89,6.21-32.78,9.37c.35-13.58,13.41-27.91,28.88-31.59S867.92,1318.88,875.23,1332.48Z"/><path class="cls-4" d="M799.61,1350.74a213.3,213.3,0,0,0-56.3,38.83c-5.09-10.62,1.2-28.88,13-38.37C769.38,1340.73,786.2,1340.37,799.61,1350.74Z"/><path class="cls-4" d="M1061.47,512c0,1,0,2,0,3s-.13,2-.19,2.94c-.92,3.5-1.84,7-2.78,10.61-9.14-20-21-37.61-45.2-42.64,6.81-8.06,15-13.46,23.79-18.19,2.42,1.71,5.11,3.13,7.23,5.16C1055.37,483.56,1060.69,496.8,1061.47,512Z"/><path class="cls-4" d="M1133.28,482c-.08.35-.16.69-.25,1-3.55,5-6.47,10.59-10.79,14.77-6.89,6.67-14.71,12.38-22.13,18.5L1089.83,509c1.26-2.28,2.49-4.58,3.76-6.85,5.11-9.07,9.58-18.35,9.28-29.15l1.79-9c10.44,3.13,19.08,9.41,27.55,16Z"/><path class="cls-4" d="M954.19,1345.15c-21.76-7.7-43.63-12.13-66.3-12.38,3.64-11.16,17.92-18.86,32.66-17.77C936.45,1316.18,951.88,1329.73,954.19,1345.15Z"/><path class="cls-4" d="M1068.89,459c9.19.79,18.37,1.62,27.56,2.37,4.82.39,6.5,2.95,5.61,7.56-.25,1.29-.24,2.63-.36,3.95-1.53,12.57-6.59,23.74-13.54,34.16l-.06.12h-13.86c2.78-9.74,4-19.2,1.63-28.59C1074.14,471.9,1071.26,465.52,1068.89,459Z"/><path class="cls-4" d="M1136.06,483.66c4.4,5.93,8.85,11.83,13.15,17.84.91,1.27,1.23,3,1.83,4.45a97.28,97.28,0,0,1-40.75,22.66,65,65,0,0,1-8.18,1.23l-2-11.65c13.54-8.14,25.32-18.1,33.34-32A13.83,13.83,0,0,1,1136.06,483.66Z"/><path class="cls-4" d="M1024.9,1390.31c12.25-4.38,26.4.09,35.45,10.75a39.07,39.07,0,0,1,4.1,43.89A219.36,219.36,0,0,0,1024.9,1390.31Z"/><path class="cls-4" d="M1020.7,1386.5c-17.18-15.58-35.55-27.87-56.2-36.68,6.46-7.47,23.54-9.14,34.36-4A39.42,39.42,0,0,1,1020.7,1386.5Z"/><path class="cls-4" d="M615.06,830.16a70,70,0,0,0-1,8.36q-.08,137.41,0,274.81c0,3.46-.16,6.93,0,10.38.13,3,1.75,4.34,4.9,4.32q24.48-.13,49,0c3,0,4.42-1,4.14-4-.06-.66,0-1.33,0-2q0-145.9,0-291.8a15.52,15.52,0,0,1,1,3.85q.06,145.94,0,291.89v2.78H612.54v-4.78q0-144.45.11-288.89C612.65,833.41,610.42,829.82,615.06,830.16Z"/><path class="cls-4" d="M1040.18,466.05c7.62-2.16,15.23-4.39,22.89-6.43,1.09-.3,2.42.28,3.65.46,1.79,4.08,3.78,8.09,5.34,12.26,4.45,11.85,3,23.77,0,35.66-2.14,1.67-4.2,3.47-6.48,4.92-.52.32-1.82-.58-2.76-.92,1.18-8.44-1.74-16-5-23.53C1054,479.44,1047.31,472.56,1040.18,466.05Z"/><path class="cls-4" d="M967.06,830.16c-2.89,2.28-3.06,5.39-3,8.79q.09,138.07,0,276.15c0,12.9,0,12.9,12.6,12.89h46.94c-.23.32-.47.92-.7.92-19.79,0-39.58,0-59.62,0V830.16Z"/><path class="cls-4" d="M1008.82,481c-1.82-7.62.93-14.85,7.15-18.91s12-3.87,18.17.66Q1021.48,471.83,1008.82,481Z"/><path class="cls-4" d="M1070.29,453.76c4.39-7,10.61-9.59,18.32-8.69,6.6.78,10.83,5,12.7,12.16Z"/><path class="cls-4" d="M934.18,556.57l.11-.33L934,556l-.3-2.68a.47.47,0,0,0,.23-.76c3.86-8.09,8.6-9.37,16-4.31l2.16,5.75c-.92,4.48-2.83,8.22-7.89,8.91S936.27,560.69,934.18,556.57Z"/><path class="cls-4" d="M1065.61,453.48l-29.14,8.12c-.07-5.93,4.26-11.38,11.35-13.78S1060.81,447.26,1065.61,453.48Z"/><path class="cls-4" d="M1107.47,459.09a14.07,14.07,0,0,1,16.11-2.13c7.16,3.52,10.31,9.48,10.35,17.42Z"/><path class="cls-4" d="M1156.28,502c-6.28-8.15-12.33-16-18.43-23.9a14.41,14.41,0,0,1,15.66,4.82C1158.36,488.59,1159.17,495,1156.28,502Z"/><path class="cls-4" d="M1166.08,533.86c-1.33-5.3-2.35-10.15-3.78-14.88-1.39-4.57-3.21-9-4.83-13.51,4.86-.68,10.11,2.53,12.63,7.83A17,17,0,0,1,1166.08,533.86Z"/><path class="cls-3" d="M934.18,556.57c2.09,4.12,5.07,7,10.05,6.34s7-4.43,7.89-8.91l6.66,3.75c-1.72,1.19-2.34,2-3,2-3.58.19-3.79,1.91-3.1,5,1.34,6,.5,7-4.42,6.86-1.21-7.46-1.49-7.58-9.11-4.42a36.92,36.92,0,0,1-7,2.37c-1.16.23-2.54-.67-3.82-1.06a13.41,13.41,0,0,1,2.25-2.58,39.17,39.17,0,0,1,4.34-2.29C934.65,561,934.42,558.81,934.18,556.57Z"/><path class="cls-4" d="M1161.46,594c5.68.21,10.49,5.15,10.38,10.66A11,11,0,0,1,1160.67,615c-5.7-.25-10.5-5.17-10.4-10.66A11,11,0,0,1,1161.46,594Zm7.56,10.56c0-4.65-3.6-8.52-8-8.53s-8,3.92-8,8.55a8.31,8.31,0,0,0,7.77,8.23A8.1,8.1,0,0,0,1169,604.56Z"/><path class="cls-3" d="M965,506l-14.42-5.86c1.68-.84,3.4-2.42,5-2.32,1.83.13,3.56,1.77,6.3,3.29,2-1.21,3.84-6.73,9.69-4.48l-5.16,4.25,12.26,4c-1,1.12-2,2.05-2.84,3.08-1,1.19-1.86,2.48-2.78,3.72l-8-5.65,2.44-.88-.77-1.06Z"/><path class="cls-3" d="M1072.1,508c3-11.89,4.41-23.81,0-35.66-1.56-4.17-3.55-8.18-5.34-12.26l2.17-1.07c2.37,6.51,5.25,12.89,7,19.57,2.42,9.39,1.15,18.85-1.63,28.59h13.86Z"/><path class="cls-3" d="M1102.11,529.84a65,65,0,0,0,8.18-1.23A97.28,97.28,0,0,0,1151,506l0,2.05c-10.46,11.11-23.77,17.3-38,21.93-3.62,1.18-7.36,2-11,3Z"/><path class="cls-3" d="M1040.18,466.05c7.13,6.51,13.81,13.39,17.71,22.42,3.23,7.49,6.15,15.09,5,23.53h-1.39c-.78-15.21-6.1-28.45-17.19-39.08-2.12-2-4.81-3.45-7.23-5.16Z"/><path class="cls-3" d="M1136.06,483.66a13.83,13.83,0,0,0-2.59,2.53c-8,13.9-19.8,23.86-33.34,32,0-.65,0-1.29,0-1.93,7.42-6.12,15.24-11.83,22.13-18.5,4.32-4.18,7.24-9.79,10.79-14.77Z"/><path class="cls-3" d="M895.75,527.87,929,513c-2.54,3.16-4.87,6.72-9.73,6.11-4.22-.53-6.76,1.5-7.24,5.88a22.76,22.76,0,0,1-.87,3.08l-4-2.59C904.05,529.63,899.67,527.57,895.75,527.87Z"/><path class="cls-3" d="M947.9,578.55c-.49-.77-1-1.54-1.39-2.15l-12.43,10.66,2.5-9.44h-7.64c5.56-4.45,11.16-3.83,16.55-3.35C946.41,574.35,947.1,577.05,947.9,578.55Z"/><path class="cls-3" d="M927.13,592l-24.32,14.29c.14-3.07.22-4.69.3-6.32h9c-.88-2.91-1.56-5.12-2.55-8.37l9.42,4.55-2.36-3.61Z"/><path class="cls-3" d="M865.84,548l20-14.26c-1.17,4.37,1.14,7.06,5.07,9.29-4.76,2.41-5.82-2.19-7.73-3.12l-13,7.13c.16.47.31.94.46,1.41Z"/><path class="cls-3" d="M1088.16,507.05c6.95-10.42,12-21.59,13.54-34.16l1.17.1c.3,10.8-4.17,20.08-9.28,29.15-1.27,2.27-2.5,4.57-3.76,6.85C1089.27,508.35,1088.71,507.7,1088.16,507.05Z"/><path class="cls-3" d="M950,548.25c-7.39-5.06-12.13-3.78-16,4.31-5,1-3.73-2.69-3.88-5.23-.19-3,1.58-3.3,4.14-3.16,3.73.2,7.49,0,11.24-.17C948.44,543.9,950.28,544.91,950,548.25Z"/><path class="cls-3" d="M932.86,511.92c11.8-3.74,23.61-4.5,35.45-.19a18.68,18.68,0,0,1-15-1.34c-1.2-.61-2.94-.37-4.41-.23C943.54,510.68,938.21,511.32,932.86,511.92Z"/><path class="cls-3" d="M888.89,531.86l6.17-3.71a4.92,4.92,0,0,1,.32,1.46c-.26,2.07.08,5.29-1.06,6-3,1.8-3.29-1.75-4.51-3.38C889.65,532,889.21,532,888.89,531.86Z"/><path class="cls-3" d="M968.31,511.71l5.9,1.38-.2-.17L975.1,514c-.59,1-1.17,2.73-1.78,2.74a6.75,6.75,0,0,1-4.29-1.36C968.28,514.73,968.51,513,968.31,511.71Z"/><path class="cls-3" d="M933,587.9l-4.83,3.49a18.27,18.27,0,0,1,.81-4.31c.37-.82,1.59-1.26,2.43-1.88Z"/><path class="cls-3" d="M986.39,504.13l-5.19,9.22C979.89,509,981.58,506,986.39,504.13Z"/><path class="cls-3" d="M906.91,559.62c.83,1,1.66,1.53,1.85,2.26.12.47-.72,1.18-1.12,1.79a13.19,13.19,0,0,1-2.19-2C905.32,561.48,906.21,560.57,906.91,559.62Z"/><path class="cls-3" d="M955.61,546l-.9-1.12a4.54,4.54,0,0,1,1-.58c.17,0,.65.41.62.51A6.21,6.21,0,0,1,955.61,546Z"/><path class="cls-3" d="M929.17,517l2-.63c.09.26.19.51.28.77l-2.07.83Z"/><path class="cls-3" d="M885.81,533.77l3.12-1.94Z"/><path class="cls-3" d="M895,538.46l.49.56a3.65,3.65,0,0,1-.62.4c-.05,0-.3-.21-.29-.25A5.67,5.67,0,0,1,895,538.46Z"/><path class="cls-3" d="M896.51,561.07l.57-.5a4.57,4.57,0,0,1,.39.62s-.21.31-.25.29A7,7,0,0,1,896.51,561.07Z"/><path class="cls-3" d="M1061.24,518c.06-1,.12-2,.19-2.94C1061.36,516,1061.3,517,1061.24,518Z"/><path class="cls-3" d="M1133.28,482l-1.07-2Z"/><path class="cls-3" d="M933.74,553.32,934,556Z"/><path class="cls-3" d="M974.21,513.09c-.13-.33-.27-.66-.41-1l1.23,1-1-.14Z"/><path class="cls-4" d="M974,512.92l1,.14c0,.32.06.63.07,1Z"/><path class="cls-4" d="M291,1679.42c17.73-2,23.1,1.44,23.54,14.55.47,14-4.65,17.8-23.54,16.86v-31.41Z"/><path class="cls-4" d="M853.34,1679.25c18.82-1.31,23.54,2.18,23.23,16.93-.26,12.48-6.09,16.17-23.23,14.5Z"/><path class="cls-4" d="M657.94,1748.52v-68.75c12.38-3.32,22.24,1.76,23.46,14.07a213,213,0,0,1,0,40.32C680.31,1746.28,672.27,1750.5,657.94,1748.52Z"/><path class="cls-4" d="M962.89,1714.13c-.95,8.47-1.25,16.65-2.92,24.55s-6.7,11.21-13.83,11.16-11.76-3.63-14-11.14a30.37,30.37,0,0,1-1.71-8.77c0-12-.15-24,.93-35.87a21.72,21.72,0,0,1,6.37-12.91c7.5-6.91,19.56-2.52,22.1,8.1C961.75,1697.4,961.94,1706,962.89,1714.13Z"/><path class="cls-4" d="M1378.9,1714.37c-1,8.41-1.29,16.58-3,24.48-1.6,7.55-6.57,10.93-13.47,11-7.12.07-12-3.51-14.29-10.83a32,32,0,0,1-1.79-9.26c0-11.8,0-23.62.77-35.39.38-6,2.5-11.83,8.62-14.8,8.51-4.13,17.82,0,20.06,9.86C1377.71,1697.6,1378,1706.15,1378.9,1714.37Z"/><path class="cls-4" d="M1537.13,1692.88c2.92,11.17,5.84,22.34,8.86,33.87h-18.5l8.8-34Z"/><path class="cls-4" d="M772.17,1679.25c20.15-1.39,26.52,2.76,25.8,17.59-.77,15.92-7.63,16-25.8,14.8Z"/><path class="cls-2" d="M1023.78,973.85V880.37c15.32,0,30.5-.85,45.55.23,14.85,1.07,23.14,11.5,27.67,24.73a71.88,71.88,0,0,1,1,44.21c-4.45,15.19-15.3,23.76-31.09,24.22C1052.62,974.18,1038.32,973.85,1023.78,973.85Z"/><path class="cls-3" d="M891.41,635.85c-2.2,15.15-5.65,28.7-11.34,41.63-4.2,9.54-9.74,18.17-17.92,24.86-6.89,5.64-14.64,9-23.74,8.82-5.64-.14-8.19-2.37-7.35-8,.77-5.17,1.84-10.7,4.38-15.14C848.46,665.24,868.82,650.2,891.41,635.85Z"/><path class="cls-3" d="M747.38,632.68c11.59-27.81,16.07-56.06,21-84.71.45,1.39,1,2.75,1.34,4.16,5.1,18.52,10.21,37,15.18,55.6.35,1.3.22,3.55-.6,4.2A127.83,127.83,0,0,1,747.38,632.68Z"/><path class="cls-3" d="M979.88,579.66c-.23-23.15,4.47-44.62,19.81-62.67a9.4,9.4,0,0,1,1.41-1.41c3.43-2.6,7.25-6.54,11.33-3.2,1.73,1.42,1.36,6.74.44,9.84C1006.47,543.92,995.15,562.9,979.88,579.66Z"/><path class="cls-3" d="M1062.27,585.64l10.12-8.5,1.9,1.56a112.82,112.82,0,0,1-6.55,10.16c-.39.5-3.11-.82-4.75-1.3Z"/><path class="cls-2" d="M872.68,570.15c.31-.85,1.07-1.84.85-2.51A33.55,33.55,0,0,0,871.2,563l1.43-1.08c1.7,2.43,3.9,4.68,4.83,7.37.37,1.05-2.11,3.1-3.3,4.69a.44.44,0,0,1-.22-.65c-.21-.44-.43-.87-.64-1.31Z"/><path class="cls-3" d="M873.3,572c.21.44.43.87.64,1.31C873.73,572.89,873.51,572.46,873.3,572Z"/><path class="cls-3" d="M1169,604.56a8.1,8.1,0,0,1-8.18,8.25,8.31,8.31,0,0,1-7.77-8.23c0-4.63,3.64-8.57,8-8.55S1169,599.91,1169,604.56Zm-12.11-4.42c.16,3.46.31,6.67.46,9.88l1.23.08,2.11-4.88,4.08,5c.51-2.16-.36-3.63-.46-5.14C1163.92,598.72,1163.5,598.34,1156.91,600.14Z"/><path class="cls-2" d="M965,506l1.68-1.93.77,1.06-2.44.88Z"/><path class="cls-4" d="M1156.91,600.14c6.59-1.8,7-1.42,7.42,4.9.1,1.51,1,3,.46,5.14l-4.08-5-2.11,4.88-1.23-.08C1157.22,606.81,1157.07,603.6,1156.91,600.14Z"/></g></g></svg>